<svg fill="#000000" xmlns="http://www.w3.org/2000/svg"  viewBox="0 0 100 100" width="24px" height="24px"><ellipse cx="62.5" cy="55" fill="none" stroke="#000000" stroke-linejoin="round" stroke-miterlimit="10" stroke-width="2" rx="7.5" ry="8"/><path fill="none" stroke="#000000" stroke-linejoin="round" stroke-miterlimit="10" stroke-width="2" d="M50,73c17,0,28-8,28-8	s-3,7-12,10l3,5c15.515-0.5,22-10.857,22-10.857c0-23-10.11-41.642-10.11-41.642c-10.11-7.714-19.728-7.5-19.728-7.5L60,21	c11.935,3.714,17,10,17,10c-7.301-4.071-16-7-27-7s-19.699,2.929-27,7c0,0,5.065-6.286,17-10l-1.163-0.999	c0,0-9.618-0.214-19.728,7.5c0,0-10.11,18.643-10.11,41.642c0,0,6.485,10.357,22,10.857l3-5c-9-3-12-10-12-10S33,73,50,73z"/><ellipse cx="37.5" cy="55" fill="none" stroke="#000000" stroke-linejoin="round" stroke-miterlimit="10" stroke-width="2" rx="7.5" ry="8"/><path fill="none" stroke="#000000" stroke-linecap="round" stroke-miterlimit="10" d="M74.5,34.771	c-0.331-0.182-0.667-0.337-1-0.511"/><path fill="none" stroke="#000000" stroke-linecap="round" stroke-miterlimit="10" d="M71.5,33.245	c-1.646-0.775-3.313-1.437-5-2.021"/><path fill="none" stroke="#000000" stroke-linecap="round" stroke-miterlimit="10" d="M64.5,30.585	C59.872,29.205,55.071,28.5,50,28.5c-8.816,0-16.832,2.058-24.5,6.271"/></svg>